<svg xmlns="http://www.w3.org/2000/svg" width="20.411" height="20.411" viewBox="0 0 20.411 20.411">
  <path id="Icon_ionic-ios-arrow-dropdown-circle" data-name="Icon ionic-ios-arrow-dropdown-circle" d="M3.375,13.581A10.206,10.206,0,1,0,13.581,3.375,10.2,10.2,0,0,0,3.375,13.581ZM17.56,11.451a.951.951,0,0,1,1.339,0,.935.935,0,0,1,.275.667.952.952,0,0,1-.28.672L14.267,17.4a.946.946,0,0,1-1.305-.029l-4.7-4.681a.947.947,0,0,1,1.339-1.339l3.979,4.018Z" transform="translate(-3.375 23.786) rotate(-90)" fill="#a480b9"/>
</svg>
